<svg
  xmlns="http://www.w3.org/2000/svg"
  width="27"
  height="24"
  viewBox="0 0 27 24"
  id="bank-account"
>
  <path d="M13,22.5 L1.5,22.5 L1.5,19.44 C1.5055037,16.4047165 3.96471651,13.9455037 7,13.94 L9.71,13.94 C9.98614237,13.94 10.21,13.7161424 10.21,13.44 C10.21,13.1638576 9.98614237,12.94 9.71,12.94 L7,12.94 C3.41243253,12.9455066 0.505506637,15.8524325 0.5,19.44 L0.5,23 C0.5,23.2761424 0.723857625,23.5 1,23.5 L13,23.5 C13.2761424,23.5 13.5,23.2761424 13.5,23 C13.5,22.7238576 13.2761424,22.5 13,22.5 Z"></path>
  <path d="M5.3 15.4C4.45304745 15.8013397 3.73834829 16.4362424 3.24 17.23 3.16948933 17.3426561 3.14673115 17.4787491 3.17675264 17.6082168 3.20677412 17.7376844 3.28710478 17.8498728 3.4 17.92 3.48153785 17.9684726 3.57518205 17.9927507 3.67 17.99 3.83952687 17.9879096 3.99693224 17.9017114 4.09 17.76 4.48685021 17.1274024 5.05572271 16.6209671 5.73 16.3 5.85595301 16.2514956 5.95632145 16.1531858 6.00742544 16.028265 6.05852943 15.9033441 6.05584302 15.7628755 6 15.64 5.94417317 15.5106447 5.83636321 15.4108453 5.70309078 15.3651519 5.56981835 15.3194585 5.42345307 15.3321121 5.3 15.4zM9.24 11.19L9.62 11.19C12.0682381 11.1844859 14.0500062 9.19824435 14.05 6.75L14.05 4.94C14.0500062 2.49175565 12.0682381.505514064 9.62.5L9.24.5C6.78785571.5 4.8 2.48785571 4.8 4.94L4.8 6.75C4.8 7.92756121 5.26778437 9.05689259 6.10044589 9.88955411 6.93310741 10.7222156 8.06243879 11.19 9.24 11.19zM5.8 4.94C5.80549231 3.0424201 7.3424201 1.50549231 9.24 1.5L9.62 1.5C11.5159531 1.50551151 13.050008 3.04403886 13.05 4.94L13.05 6.75C13.050008 8.64596114 11.5159531 10.1844885 9.62 10.19L9.24 10.19C7.3424201 10.1845077 5.80549231 8.6475799 5.8 6.75L5.8 4.94zM19 8.69C16.0020253 8.69000273 13.29944 10.4964752 12.1531012 13.2666303 11.0067624 16.0367854 11.6425655 19.2247416 13.7638846 21.343198 15.8852037 23.4616543 19.0740156 24.0931517 21.8426202 22.9430731 24.6112247 21.7929944 26.4140458 19.0879719 26.41 16.09 26.4044824 12.0014758 23.0885279 8.68999628 19 8.69zM19 22.5C15.4598548 22.5 12.59 19.6301452 12.59 16.09 12.59 12.5498548 15.4598548 9.68 19 9.68 22.5401452 9.68 25.41 12.5498548 25.41 16.09 25.41 17.7900377 24.7346627 19.4204463 23.5325545 20.6225545 22.3304463 21.8246627 20.7000377 22.5 19 22.5z"></path>
  <path d="M19,15.09 L19.76,15.09 C20.0361424,15.09 20.26,14.8661424 20.26,14.59 C20.26,14.3138576 20.0361424,14.09 19.76,14.09 L19.5,14.09 L19.5,13.79 C19.5,13.5138576 19.2761424,13.29 19,13.29 C18.7238576,13.29 18.5,13.5138576 18.5,13.79 L18.5,14.19 C18.0464838,14.393521 17.753396,14.8429223 17.75,15.34 C17.75,16.0303559 18.3096441,16.59 19,16.59 C19.0689563,16.59 19.1350883,16.6173928 19.1838478,16.6661522 C19.2326072,16.7149117 19.26,16.7810437 19.26,16.85 C19.254624,16.9896744 19.1397777,17.1001034 19,17.1 L18.25,17.1 C17.9738576,17.1 17.75,17.3238576 17.75,17.6 C17.75,17.8761424 17.9738576,18.1 18.25,18.1 L18.5,18.1 L18.5,18.4 C18.5053201,18.6739085 18.7260915,18.8946799 19,18.9 C19.2761424,18.9 19.5,18.6761424 19.5,18.4 L19.5,18 C19.9593295,17.8071632 20.258662,17.3581645 20.26,16.86 C20.262666,16.524098 20.1310942,16.201037 19.8945088,15.9625739 C19.6579234,15.7241109 19.3359126,15.5899894 19,15.59 C18.8619288,15.59 18.75,15.4780712 18.75,15.34 C18.75,15.2019288 18.8619288,15.09 19,15.09 Z"></path>
  <path d="M19,11.21 C16.3061591,11.2155202 14.1263263,13.4028089 14.1300045,16.096653 C14.1336828,18.7904971 16.3194805,20.9718249 19.0133265,20.9699886 C21.7071725,20.9681523 23.8899943,18.7838466 23.89,16.09 C23.8844851,13.3932336 21.696772,11.2099944 19,11.21 Z M19,20 C16.8584456,19.9944805 15.1263284,18.2549089 15.1300057,16.1133505 C15.133683,13.9717921 16.871764,12.2381792 19.0133247,12.2400143 C21.1548855,12.2418494 22.8899929,13.9784385 22.89,16.12 C22.8844872,18.2644814 21.1444885,20.0000071 19,20 Z"></path>
</svg>