<svg
  xmlns="http://www.w3.org/2000/svg"
  viewBox="0 0 64 64"
  id="phone"
>
  <path d="M9.4 29.2c-.3-.5-.9-.7-1.4-.4-.5.3-.7.9-.4 1.4.3.5.6 1.1.9 1.6.2.3.5.5.9.5.2 0 .3 0 .5-.1.5-.3.6-.9.4-1.4-.3-.6-.6-1.1-.9-1.6zM55 58.3l-2.2 2.2c-.5.5-1 .7-1.6.5-15.9-4-29.6-13.5-38.7-26.8-.3-.5-.9-.6-1.4-.3-.5.3-.6.9-.3 1.4C20.1 49.1 34.3 58.9 50.7 63c.3.1.6.1.9.1 1 0 1.9-.4 2.7-1.2l2.2-2.2c.4-.4.4-1 0-1.4s-1.1-.4-1.5 0z"></path>
  <path d="M61.9 48.7 51.5 38.3c-.7-.7-1.7-1.1-2.8-1.1s-2 .4-2.8 1.1l-7.3 7.4c-.6.6-1.5.7-2.2.3-7.4-4.3-13.8-10.7-18.2-18.3-.3-.6-.4-1.6.2-2.2l7.3-7.4c.7-.7 1.1-1.7 1.1-2.8 0-1-.4-2-1.1-2.8L15.3 2.2c-1.5-1.5-4-1.5-5.5 0L2 9.9c-.8 1-1.2 2.2-.9 3.5 1.1 4.4 2.6 8.8 4.5 12.8.3.6.9.8 1.4.6.5-.2.7-.8.5-1.3-1.9-4-3.3-8.2-4.4-12.4-.2-.8.2-1.4.4-1.7l7.7-7.7c.7-.7 2-.7 2.7 0L24.3 14c.3.3.5.8.5 1.3s-.2 1-.5 1.3L17 24.1c-1.3 1.3-1.2 3.2-.6 4.5 4.6 8 11.2 14.6 19.1 19.2 1.5.8 3.4.5 4.6-.7l7.3-7.4c.7-.7 2-.7 2.7 0l10.4 10.4c.7.7.7 2 0 2.7l-2 2c-.4.4-.4 1 0 1.4.2.2.5.3.7.3s.5-.1.7-.3l2-2c1.5-1.5 1.5-4 0-5.5z"></path>
  <path d="m12 7.4 3.3 3.3c.2.2.5.3.7.3s.5-.1.7-.3c.4-.4.4-1 0-1.4l-3.4-3.4c-.7-.7-2-.7-2.6 0L7.3 9.3c-.4.4-.4 1 0 1.4s1 .4 1.4 0L12 7.4zm8 7.6c.3 0 .5-.1.7-.3.4-.4.4-1 0-1.4l-1.6-1.6c-.4-.4-1-.4-1.4 0s-.4 1 0 1.4l1.6 1.6c.2.2.4.3.7.3zm27.7 43.1h.3c.4 0 .8-.3 1-.7.2-.5-.1-1.1-.7-1.3-3.4-1.1-6.1-2-8.4-3.1-.5-.2-1.1 0-1.3.5-.2.5 0 1.1.5 1.3 2.4 1.2 5.1 2.2 8.6 3.3z"></path>
</svg>