<svg
  xmlns="http://www.w3.org/2000/svg"
  data-name="Layer 1"
  viewBox="0 0 512 512"
  id="insurance"
>
  <path d="m225.396 435.105-3.32-.398 3.023-25.58a52.408 52.408 0 0 0-13.836-42.045l-89.296-95.299 12.08-60.806a25.44 25.44 0 0 0-20.84-30.06 25.95 25.95 0 0 0-4.137-.337 25.335 25.335 0 0 0-24.266 17.826L60.466 276.01a67.761 67.761 0 0 0 .932 43.182l17.82 49.233a67.521 67.521 0 0 0 21.612 29.978l11.108 8.78a22.615 22.615 0 0 1 8.415 15.334 21.836 21.836 0 0 0-23.675 19.106l-1.57 13.088-.002.006v.007l-3.952 32.936a7.5 7.5 0 0 0 14.893 1.787l3.046-25.39 117.916 14.996-2.946 24.553a7.5 7.5 0 1 0 14.892 1.788l3.824-31.873.004-.023.002-.03 1.694-14.11a21.82 21.82 0 0 0-19.082-24.253Zm-115.262-48.467a52.537 52.537 0 0 1-16.813-23.32l-17.82-49.234a52.691 52.691 0 0 1-.725-33.58l24.34-77.607a10.396 10.396 0 0 1 9.954-7.317 10.893 10.893 0 0 1 1.72.14 10.44 10.44 0 0 1 8.544 12.338l-12.196 61.389a32.954 32.954 0 0 0-10.352 42.7l21.25 39.75a7.5 7.5 0 0 0 13.229-7.073l-21.252-39.754a17.743 17.743 0 0 1-2.133-8.46 18.005 18.005 0 0 1 5.054-12.53l87.383 93.258a37.441 37.441 0 0 1 9.885 30.032l-3.019 25.55-71.716-8.605a37.667 37.667 0 0 0-14.227-28.899Zm119.452 70.932-.79 6.588-117.916-14.996.69-5.752a6.834 6.834 0 0 1 7.599-5.943l7.642.917h.005l96.793 11.614a6.822 6.822 0 0 1 5.977 7.572ZM332.73 223.134c20.785-29.468 31.77-63.123 31.77-97.33V46.94a7.5 7.5 0 0 0-6.36-7.413 240.087 240.087 0 0 1-55.656-15.546A220.472 220.472 0 0 1 261.05 1.35a7.497 7.497 0 0 0-8.801.157 191.875 191.875 0 0 1-30.308 18.614 214.312 214.312 0 0 1-67.895 20.152 7.501 7.501 0 0 0-6.546 7.44v78.092c0 34.206 10.985 67.861 31.77 97.329 18.008 25.53 43.285 47.75 73.097 64.258a7.5 7.5 0 0 0 7.266 0c29.812-16.508 55.089-38.728 73.097-64.258ZM256 272.213c-26.262-15.179-48.493-35.07-64.473-57.726-18.99-26.923-29.027-57.59-29.027-88.682v-71.58a227.698 227.698 0 0 0 66.086-20.656 208.111 208.111 0 0 0 28.329-16.893 236.85 236.85 0 0 0 39.808 21.154A254.402 254.402 0 0 0 349.5 53.292v72.513c0 31.092-10.037 61.76-29.027 88.682-15.98 22.656-38.211 42.547-64.473 57.726Zm78.5-200.747a7.501 7.501 0 0 0-5.682-7.277 267.926 267.926 0 0 1-37.858-12.511 255.53 255.53 0 0 1-29.897-14.786 7.503 7.503 0 0 0-7.688.098 226.39 226.39 0 0 1-18.144 10.027 239.177 239.177 0 0 1-51.923 18.458 7.5 7.5 0 0 0-5.808 7.306v53.024c0 27.98 9.089 55.656 26.285 80.036 12.377 17.548 28.541 33.063 48.043 46.115a7.5 7.5 0 0 0 8.344 0c19.502-13.052 35.666-28.567 48.043-46.115 17.196-24.38 26.285-52.056 26.285-80.036Zm-15 54.339c0 24.868-8.14 49.553-23.543 71.39A167.906 167.906 0 0 1 256 236.615a167.906 167.906 0 0 1-39.957-39.422c-15.402-21.836-23.543-46.521-23.543-71.39V78.674a253.124 253.124 0 0 0 49.376-18.21 241.457 241.457 0 0 0 15.533-8.396 271.531 271.531 0 0 0 27.788 13.46A282.613 282.613 0 0 0 319.5 77.26Zm132.036 150.21-24.34-77.612a25.449 25.449 0 0 0-49.243 12.578l12.08 60.802-89.296 95.299a52.411 52.411 0 0 0-13.836 42.048l3.023 25.577-3.32.398a21.82 21.82 0 0 0-19.082 24.252l1.693 14.112.002.029.004.023 3.824 31.873a7.5 7.5 0 1 0 14.893-1.788l-2.946-24.553 117.915-14.997 3.046 25.391a7.5 7.5 0 0 0 14.893-1.787l-3.952-32.936v-.007l-.001-.006-1.57-13.088a21.848 21.848 0 0 0-23.676-19.106 22.613 22.613 0 0 1 8.413-15.333l11.113-8.783a67.526 67.526 0 0 0 21.61-29.978l17.818-49.228a67.76 67.76 0 0 0 .935-43.18Zm-58.705 161.452a6.837 6.837 0 0 1 7.599 5.943l.69 5.752-117.915 14.996-.79-6.588a6.822 6.822 0 0 1 5.976-7.572l96.793-11.614h.005Zm43.667-123.38-17.82 49.228a52.531 52.531 0 0 1-16.809 23.32l-11.11 8.782a37.667 37.667 0 0 0-14.226 28.898l-71.716 8.605-3.02-25.547a37.444 37.444 0 0 1 9.886-30.035l87.383-93.259a18.005 18.005 0 0 1 5.054 12.531 17.75 17.75 0 0 1-2.135 8.464l-21.25 39.75a7.5 7.5 0 1 0 13.229 7.072l21.248-39.746a32.954 32.954 0 0 0-10.35-42.703l-12.195-61.385a10.44 10.44 0 0 1 8.52-12.337 10.937 10.937 0 0 1 1.743-.145 10.395 10.395 0 0 1 9.954 7.315l24.342 77.615a52.69 52.69 0 0 1-.728 33.577Z">
  </path>
</svg>