<svg
  xmlns="http://www.w3.org/2000/svg"
  enable-background="new 0 0 64 64"
  viewBox="0 0 64 64"
  id="identity-card"
>
  <path fill="#231f20" d="M16.9 36.8c-3.4 0-6.3-2.9-6.3-6.3s2.9-6.3 6.3-6.3 6.3 2.9 6.3 6.3S20.5 36.8 16.9 36.8zM16.9 26.1c-2.5 0-4.4 2-4.4 4.4s2 4.4 4.4 4.4 4.4-2 4.4-4.4S19.4 26.1 16.9 26.1zM16.9 49.5c-.1 0-1.1 0-2.5-.2-1.3-.1-3.1-.4-4.7-.8-1.7-.5-3.5-1.5-4-2.4C5 45.1 5.1 43.8 6 42.4c1.9-3.1 7.7-5.1 8-5.1l.5-.2 2.6 2 2.5-2 .5.2c.1 0 2.6.9 4.7 2.3 1.5.9 2.6 1.9 3.1 3 .9 1.5 1 2.8.3 3.7-.5.9-2.4 1.9-4 2.4-.6.1-1.2.3-1.8.4C19.7 49.5 17.1 49.5 16.9 49.5zM14.1 39.3c-1.8.6-5.3 2.3-6.4 4.1-.6 1-.5 1.5-.3 1.8.2.3 1.5 1.2 3 1.6 1.6.4 3.2.6 4.4.8.9.1 1.6.1 2 .1l-1.9-2.9 1.1-4.1L14.1 39.3zM18.1 40.7l1.4 4-1.8 2.9c.9-.1 2.6-.2 4.2-.5.6-.1 1.2-.2 1.7-.4 1.5-.4 2.8-1.3 3-1.6s.3-.8-.3-1.8l0 0c-.5-.8-1.3-1.5-2.6-2.3-1.5-.9-3.1-1.6-3.8-1.9L18.1 40.7zM16.9 44.5l.2.4.2-.4L17 43.7 16.9 44.5z"></path>
  <path fill="#231f20" d="M54.4,56.9H9.6c-5,0-9.1-4-9.1-9.1v-23c0-5,4-9.1,9.1-9.1h14.2v1.9H9.6c-3.9,0-7.2,3.2-7.2,7.2v23 c0,3.9,3.2,7.2,7.2,7.2h44.9c3.9,0,7.2-3.2,7.2-7.2v-23c0-3.9-3.2-7.2-7.2-7.2H39.6v-1.9h14.9c5,0,9.1,4,9.1,9.1v23 C63.5,52.9,59.5,56.9,54.4,56.9z"></path>
  <path fill="#231f20" d="M31.7 26.3c-.9 0-1.8-.3-2.6-.8l-6.2-4.1v-10c0-2.4 2.2-4.2 4.8-4.2h8.1c2.7 0 4.8 1.9 4.8 4.2v10l-6.2 4.1C33.5 26 32.6 26.3 31.7 26.3zM24.7 20.4l5.4 3.5c.9.6 2.2.6 3.1 0l5.4-3.5v-9.1c0-1.3-1.3-2.4-2.9-2.4h-8.1c-1.6 0-2.9 1.1-2.9 2.4L24.7 20.4 24.7 20.4zM59.2 33.6H39.6c-.5 0-1-.4-1-1 0-.6.4-1 1-1h19.6c.5 0 1 .4 1 1C60.2 33.2 59.7 33.6 59.2 33.6zM49.3 39.4h-9.8c-.5 0-1-.4-1-1s.4-1 1-1h9.8c.5 0 1 .4 1 1S49.9 39.4 49.3 39.4zM57 39.4h-3.9c-.5 0-1-.4-1-1s.4-1 1-1H57c.5 0 1 .4 1 1S57.5 39.4 57 39.4z"></path>
</svg>