<svg
  xmlns="http://www.w3.org/2000/svg"
  data-name="Layer 1"
  viewBox="0 0 32 32"
  id="bank"
>
  <path d="M30,14.486v-.5h.5a1.5,1.5,0,0,0,1.5-1.5v-2c0-.016-.008-.03-.009-.046a.491.491,0,0,0-.02-.1.5.5,0,0,0-.159-.236c-.012-.01-.02-.024-.033-.034L17.391.436a2.494,2.494,0,0,0-2.782,0L.222,10.071c-.014.009-.021.023-.033.034a.476.476,0,0,0-.159.236.491.491,0,0,0-.02.1c0,.016-.009.029-.009.046v2a1.5,1.5,0,0,0,1.5,1.5H2v.5a1.5,1.5,0,0,0,1,1.408V26.032a1.5,1.5,0,0,0-1,1.408v.547H1.5a1.5,1.5,0,0,0-1.5,1.5v2a.5.5,0,0,0,.5.5h31a.5.5,0,0,0,.5-.5v-2a1.5,1.5,0,0,0-1.5-1.5H30v-.547a1.5,1.5,0,0,0-1-1.408V15.894A1.5,1.5,0,0,0,30,14.486ZM15.166,1.267a1.493,1.493,0,0,1,1.669,0l13.02,8.719H2.145ZM3,27.439a.494.494,0,0,1,.384-.477.482.482,0,0,0,.116.023h3a.482.482,0,0,0,.116-.023A.494.494,0,0,1,7,27.439v.5H3Zm.5-12.453a.5.5,0,0,1-.5-.5v-.5H7v.5a.5.5,0,0,1-.5.5Zm2.5,1v9.953H4V15.986Zm24.5,13a.5.5,0,0,1,.5.5v1.5H1v-1.5a.5.5,0,0,1,.5-.5H12a.5.5,0,1,0,0-1H8v-.547a1.5,1.5,0,0,0-1-1.408V15.894a1.5,1.5,0,0,0,1-1.408v-.5h3a.5.5,0,0,0,0-1H1.5a.5.5,0,0,1-.5-.5v-1.5H31v1.5a.5.5,0,0,1-.5.5h-10a.5.5,0,0,0,0,1H24v.5a1.5,1.5,0,0,0,1,1.408V26.032a1.5,1.5,0,0,0-1,1.408v.547H19.5a.5.5,0,0,0,0,1Zm-2-2a.482.482,0,0,0,.116-.023.494.494,0,0,1,.384.477v.5H25v-.5a.494.494,0,0,1,.384-.477.482.482,0,0,0,.116.023ZM26,25.939V15.986h2v9.953Zm2.5-10.953h-3a.5.5,0,0,1-.5-.5v-.5h4v.5A.5.5,0,0,1,28.5,14.986Zm-6,4.5a6.5,6.5,0,1,0-8.664,6.123.5.5,0,0,0,.328-.945,5.5,5.5,0,1,1,3.672,0,.5.5,0,0,0,.164.973.505.505,0,0,0,.164-.027A6.48,6.48,0,0,0,22.5,19.486ZM16,3.939a2,2,0,1,0,2,2A2,2,0,0,0,16,3.939Zm0,3a1,1,0,1,1,1-1A1,1,0,0,1,16,6.939Zm1.061,19.78-.561.561V25.486a.5.5,0,0,0-1,0v1.793l-.561-.561a.5.5,0,0,0-.707.707l1.413,1.413a.5.5,0,0,0,.708,0l1.413-1.413a.5.5,0,0,0-.707-.707ZM16.5,21.986h-1a1,1,0,0,1-1-1,.5.5,0,0,0-1,0,2,2,0,0,0,2,2v.5a.5.5,0,1,0,1,0v-.5a2,2,0,0,0,0-4h-1a1,1,0,0,1,0-2h1a1,1,0,0,1,1,1,.5.5,0,1,0,1,0,2,2,0,0,0-2-2v-.5a.5.5,0,0,0-1,0v.5a2,2,0,0,0,0,4h1a1,1,0,0,1,0,2Z"></path>
</svg>