<svg
  xmlns="http://www.w3.org/2000/svg"
  width="64"
  height="64"
  enable-background="new"
  viewBox="0 0 64 64"
  id="beach-chair"
>
  <path style="font-feature-settings:normal;font-variant-alternates:normal;font-variant-caps:normal;font-variant-east-asian:normal;font-variant-ligatures:normal;font-variant-numeric:normal;font-variant-position:normal;font-variation-settings:normal;inline-size:0;isolation:auto;mix-blend-mode:normal;shape-margin:0;shape-padding:0;text-decoration-color:#000;text-decoration-line:none;text-decoration-style:solid;text-indent:0;text-orientation:mixed;text-transform:none" d="m31.146 4.002c-8.9462 0.097792-17.166 5.6901-20.371 14.314-0.59204 1.5929 0.41358 3.3102 2.0039 3.7363l17.387 4.6582-4.6035 17.289h-1.5625c-0.33878 0-0.6666-0.12133-0.92383-0.3418l-12.479-10.693c-0.74514-0.6387-1.7004-0.98388-2.6816-0.96484-1.1395 0.02236-2.2172 0.53128-2.959 1.3965-1.4308 1.6679-1.2347 4.2102 0.43359 5.6406l14.002 12c0.72504 0.62161 1.6485 0.96294 2.6035 0.96289h1.4375l-1.7949 6.7422c-0.14273 0.53399 0.17483 1.0825 0.70898 1.2246 0.53336 0.14148 1.0805-0.1758 1.2227-0.70898l1.9336-7.2578h24.596l1.9336 7.2578a1 1 0 0 0 1.2246 0.70898 1 1 0 0 0 0.70898-1.2246l-1.7969-6.7422h3.8301c2.1974 0 4-1.8027 4-4s-1.8026-4-4-4h-28.365l4.4648-16.771 17.385 4.6582c1.5903 0.42613 3.3198-0.55891 3.6035-2.2344 1.8726-11.059-4.96-21.939-16.004-24.898-1.3805-0.3699-2.7655-0.59887-4.1406-0.69727-0.60161-0.043048-1.2005-0.061207-1.7969-0.054688zm0.015625 1.9961c0.54259-0.0057156 1.0873 0.011409 1.6348 0.050781 1.2514 0.089994 2.512 0.29976 3.7695 0.63672 10.06 2.6957 16.252 12.575 14.549 22.633-0.084979 0.50185-0.56974 0.78236-1.1133 0.63672l-36.705-9.834c-0.54354-0.14564-0.82382-0.63226-0.64648-1.1094 2.9154-7.8438 10.373-12.928 18.512-13.014zm-23.207 28.002c0.49142-0.0095 0.96881 0.16244 1.3418 0.48242l12.479 10.695c0.61936 0.53083 1.4089 0.82227 2.2246 0.82227h32c1.1167 0 2 0.88371 2 2s-0.88333 2-2 2h-34.004c-0.47799 2.3e-5 -0.9399-0.17135-1.3027-0.48242l-14.002-12c-0.84634-0.72698-0.94141-1.9714-0.21484-2.8184 0.37145-0.43323 0.90785-0.68802 1.4785-0.69922z" color="#000"></path>
</svg>