<svg
  xmlns="http://www.w3.org/2000/svg"
  viewBox="0 0 64 64"
  id="location-house"
>
  <path d="m62.191 31.464-4.994-10.346a3.094 3.094 0 0 0-2.771-1.74H35.037A17.69 17.69 0 0 0 1.52 26.282c-.018.315-.02.609-.02.923 0 .314.002.608.018.887.301 12.534 16.355 25.6 17.038 26.15a1 1 0 0 0 1.254 0 70.104 70.104 0 0 0 8.42-8.295v5.439a3.081 3.081 0 0 0 3.078 3.077h25.845a3.081 3.081 0 0 0 3.077-3.077V35.768a3.072 3.072 0 0 0 1.962-4.304ZM19.182 52.156c-2.964-2.544-15.419-13.834-15.667-24.15-.016-.272-.015-.53-.015-.802 0-.273-.001-.53.016-.812a15.689 15.689 0 0 1 31.334.008c.017.274.016.53.016.804 0 .273.001.53-.018.838-.246 10.275-12.7 21.57-15.666 24.114Zm28.047.306h-6v-7.297a.39.39 0 0 1 .39-.39h5.22a.39.39 0 0 1 .39.39Zm9.923 0H49.23v-7.297a2.393 2.393 0 0 0-2.39-2.39h-5.22a2.393 2.393 0 0 0-2.39 2.39v7.297h-7.922a1.079 1.079 0 0 1-1.078-1.077v-7.91a39.74 39.74 0 0 0 4.66-7.596h23.34v15.506a1.079 1.079 0 0 1-1.077 1.077Zm3.18-19.088a1.057 1.057 0 0 1-.912.505H35.703a18.527 18.527 0 0 0 1.143-5.753c.02-.314.02-.608.02-.922 0-.314-.001-.608-.019-.914a17.622 17.622 0 0 0-.962-4.911h18.54a1.085 1.085 0 0 1 .971.608l4.112 8.517h-.623a.375.375 0 0 0 0 .75h.985l.52 1.079a1.06 1.06 0 0 1-.057 1.041Zm-14.68-2.495a.375.375 0 0 1-.376.375h-2.094a.375.375 0 0 1 0-.75h2.094a.375.375 0 0 1 .375.375Zm-5.235 0a.375.375 0 0 1-.375.375h-2.093a.375.375 0 0 1 0-.75h2.093a.375.375 0 0 1 .375.375Zm15.702 0a.375.375 0 0 1-.375.375H53.65a.375.375 0 0 1 0-.75h2.094a.375.375 0 0 1 .375.375Zm-5.234 0a.375.375 0 0 1-.375.375h-2.093a.375.375 0 0 1 0-.75h2.093a.375.375 0 0 1 .375.375Zm-31.703-13.35a9.683 9.683 0 1 0 9.684 9.683 9.694 9.694 0 0 0-9.684-9.683Zm0 17.367a7.683 7.683 0 1 1 7.684-7.684 7.692 7.692 0 0 1-7.684 7.684Z" data-name="Layer 53"></path>
</svg>