<svg width="187" height="48" viewBox="0 0 187 48" fill="none" xmlns="http://www.w3.org/2000/svg">
<path d="M66.3807 8.45032C66.7888 7.89371 67.1473 7.33267 67.5394 6.79439C68.8985 4.92859 70.5195 3.35424 72.5029 2.17895C74.102 1.23126 75.8209 0.622039 77.6408 0.296883C79.44 -0.0244308 81.2501 -0.0628584 83.0627 0.131644C84.85 0.323486 86.5662 0.78373 88.1718 1.62411C90.0573 2.61111 91.5716 4.01844 92.7653 5.79055C93.7312 7.22448 94.4175 8.79115 94.9083 10.4494C95.4827 12.39 95.7795 14.3788 95.9126 16.3971C95.9723 17.3014 95.9971 18.2065 95.9974 19.1119C95.9994 28.2574 95.9985 37.4031 95.9985 46.5486C95.9985 46.6175 96.0038 46.6869 95.9971 46.7552C95.9825 46.903 95.9039 46.9819 95.7559 46.9967C95.6886 47.0035 95.6202 46.9985 95.5523 46.9985C93.3881 46.9985 91.2238 46.9985 89.0596 46.9985C88.9917 46.9985 88.923 47.0038 88.856 46.9961C88.7031 46.979 88.6355 46.9074 88.6239 46.7499C88.618 46.6716 88.6227 46.5923 88.6227 46.5137C88.6227 38.1853 88.6212 29.8568 88.6239 21.5284C88.6244 20.1007 88.6052 18.6738 88.4427 17.2538C88.2309 15.4004 87.8686 13.5837 87.1092 11.8692C86.5622 10.6345 85.836 9.53043 84.8317 8.62502C83.7548 7.65428 82.4994 7.04476 81.0992 6.74207C78.9987 6.28803 76.9158 6.36666 74.8637 7.02496C73.3307 7.51683 71.992 8.351 70.8274 9.46865C68.6279 11.5801 67.2924 14.1692 66.7189 17.1754C66.4765 18.4459 66.379 19.7279 66.3792 21.0206C66.3813 29.5066 66.3801 37.9925 66.3801 46.4785C66.3801 46.5376 66.381 46.5968 66.3801 46.6556C66.3757 46.9349 66.3157 46.9979 66.0338 46.9979C63.8113 46.9991 61.5888 46.9988 59.3666 46.9979C59.0666 46.9979 59.0069 46.9361 59.0034 46.6396C59.0022 46.551 59.0034 46.4626 59.0034 46.3739C59.0034 31.4495 59.004 16.5254 59.0005 1.60105C59.0005 1.11716 59.0506 1.09292 59.5105 1.09411C61.6552 1.10002 63.7999 1.09677 65.9449 1.09677C66.0224 1.09677 66.1014 1.08997 66.1774 1.1012C66.2948 1.11835 66.3714 1.18752 66.379 1.31433C66.3836 1.39295 66.3804 1.47188 66.3804 1.55051C66.3804 3.75566 66.3804 5.96081 66.3804 8.16596C66.3807 8.26114 66.3807 8.35573 66.3807 8.45032Z" fill="#333333"/>
<path d="M141.989 6.08322C141.989 7.23389 141.989 8.38426 141.989 9.53493C141.989 9.59398 141.991 9.65303 141.988 9.71179C141.977 9.93059 141.82 10.0183 141.642 9.89929C141.33 9.69053 141.026 9.46908 140.712 9.26416C139.261 8.31842 137.716 7.58438 136.063 7.10368C134.315 6.59493 132.532 6.37997 130.714 6.46708C129.373 6.53144 128.06 6.75112 126.782 7.17602C124.141 8.05326 122.009 9.68138 120.27 11.8814C118.548 14.0593 117.486 16.5553 116.921 19.2895C116.448 21.5849 116.336 23.9072 116.475 26.2416C116.593 28.24 116.924 30.2023 117.596 32.0906C118.721 35.2473 120.595 37.7913 123.397 39.5635C124.626 40.3407 125.962 40.8551 127.369 41.1748C129.213 41.5938 131.076 41.6724 132.947 41.4559C135.084 41.2088 137.089 40.5114 138.976 39.4513C139.865 38.9517 140.711 38.3839 141.519 37.7547C141.591 37.6986 141.65 37.6257 141.769 37.6845C141.892 37.7453 141.896 37.8339 141.896 37.9469C141.895 40.1594 141.893 42.3722 141.9 44.5846C141.9 44.7491 141.838 44.8258 141.711 44.9044C139.83 46.0654 137.814 46.8724 135.679 47.3708C133.384 47.9061 131.059 48.0679 128.712 47.9755C126.738 47.8978 124.805 47.5816 122.919 46.9713C120.112 46.063 117.651 44.5536 115.539 42.4466C113.419 40.3321 111.808 37.8646 110.717 35.0356C109.825 32.7248 109.322 30.3254 109.118 27.854C108.938 25.6723 108.968 23.4917 109.185 21.3156C109.46 18.5637 110.065 15.8941 111.129 13.3454C112.495 10.0738 114.488 7.27848 117.14 4.99161C119.169 3.24273 121.456 1.9778 123.981 1.16344C126.115 0.474874 128.301 0.126161 130.533 0.0378754C131.718 -0.00877717 132.9 0.00864373 134.08 0.109035C136.686 0.330488 139.195 0.945239 141.576 2.08026C141.878 2.22435 142.011 2.37936 142 2.75022C141.968 3.86014 141.989 4.97213 141.989 6.08322Z" fill="#333333"/>
<path d="M186.998 6.09005C186.998 7.25032 186.998 8.4106 186.998 9.57087C186.998 9.62992 187 9.68897 186.997 9.74772C186.985 9.94671 186.847 10.0226 186.681 9.90951C186.29 9.64498 185.898 9.38192 185.495 9.13481C184.029 8.23523 182.472 7.53641 180.813 7.07938C179.016 6.58457 177.185 6.37997 175.32 6.47533C173.646 6.56095 172.022 6.8739 170.462 7.49478C168.585 8.24172 166.968 9.371 165.568 10.8162C163.325 13.1308 161.933 15.8945 161.225 19.0205C160.733 21.1928 160.603 23.3929 160.681 25.6119C160.747 27.4562 160.997 29.2716 161.517 31.0451C162.284 33.6621 163.592 35.9602 165.585 37.8458C167.255 39.4265 169.216 40.4849 171.444 41.0562C172.99 41.4527 174.563 41.5947 176.155 41.5605C179.314 41.4926 182.202 40.5434 184.877 38.8942C185.447 38.5429 185.998 38.1641 186.533 37.7635C186.618 37.7006 186.683 37.6223 186.817 37.6917C186.948 37.7593 186.934 37.8571 186.934 37.9628C186.935 39.7327 186.935 41.5026 186.935 43.2726C186.935 43.7151 186.93 44.1577 186.938 44.5999C186.94 44.734 186.898 44.8131 186.781 44.8828C184.901 46.0055 182.893 46.8086 180.763 47.3131C178.264 47.9054 175.729 48.0799 173.169 47.9683C170.711 47.8611 168.326 47.4067 166.034 46.5048C162.731 45.2052 160.025 43.1066 157.828 40.3388C155.898 37.9075 154.597 35.1701 153.833 32.1676C153.058 29.1267 152.892 26.0388 153.06 22.9208C153.174 20.8246 153.474 18.7574 154.02 16.7294C154.949 13.2711 156.531 10.1513 158.893 7.44105C160.98 5.04669 163.464 3.18848 166.388 1.92989C167.966 1.25115 169.604 0.775227 171.293 0.464639C173.601 0.0406817 175.926 -0.0685553 178.263 0.06991C181.035 0.234356 183.716 0.802684 186.262 1.93845C186.45 2.0226 186.633 2.12061 186.824 2.19708C186.966 2.25406 187.002 2.34499 187 2.49084C186.994 3.36592 186.997 4.24099 186.997 5.11607C186.998 5.44112 186.998 5.76559 186.998 6.09005Z" fill="#333333"/>
<path d="M12.4028 0C12.4395 0.0897717 12.5197 0.049906 12.5805 0.0549261C15.6768 0.314201 18.222 1.60555 20.1213 4.11148C21.2472 5.59685 21.9624 7.27564 22.4409 9.06694C22.7306 10.1516 22.8886 11.2587 23.0352 12.3702C23.3004 14.3812 23.8203 16.3201 24.7996 18.1097C25.9746 20.2568 27.6712 21.8417 29.9109 22.8289C31.1714 23.3843 32.4891 23.7399 33.8444 23.9602C36.0406 24.3175 38.1946 24.831 40.2396 25.7344C41.5177 26.299 42.7014 27.0168 43.7583 27.9432C45.1785 29.1879 46.1349 30.7214 46.6375 32.5413C47.4476 35.4758 47.1583 38.3198 45.7989 41.0212C44.2421 44.1151 41.7183 46.0257 38.3764 46.8537C37.1307 47.1623 35.8635 47.2506 34.5893 47.1434C32.2617 46.9476 30.1031 46.267 28.2596 44.7683C26.5638 43.3898 25.4529 41.6225 24.8569 39.5176C24.5467 38.4223 24.4228 37.3034 24.3614 36.1724C24.312 35.2596 24.2903 34.3453 24.2078 33.4343C23.889 29.9161 22.3273 27.1347 19.3632 25.1913C17.9797 24.2841 16.4525 23.7248 14.8458 23.3675C13.7187 23.1168 12.5746 22.9659 11.4364 22.7822C9.404 22.4544 7.49706 21.7868 5.74874 20.6918C3.63266 19.3668 1.96277 17.6266 0.924996 15.3217C0.478516 14.3298 0.204753 13.2883 0.117807 12.1989C0.101064 11.9866 0.105764 11.7672 0.0114746 11.5667C0.0114746 11.3109 0.0114746 11.0552 0.0114746 10.7995C0.0696345 10.7475 0.0602349 10.6749 0.0684596 10.6078C0.1322 10.1014 0.167449 9.59139 0.276132 9.09115C0.81132 6.62361 2.01476 4.53967 3.87294 2.84818C5.74904 1.14105 7.95735 0.199919 10.492 0.0537449C10.5452 0.0507919 10.6124 0.0764831 10.6409 0C11.2284 0 11.8156 0 12.4028 0Z" fill="#ED1B23"/>
<path d="M20.1309 37.5196C20.0636 40.0734 19.0308 42.6044 16.8307 44.6009C15.3644 45.9315 13.6346 46.7401 11.6809 47.0442C9.39243 47.4001 7.20585 47.0608 5.19199 45.9047C2.58449 44.4081 0.9378 42.1662 0.278067 39.2102C0.192296 38.8263 0.149411 38.4353 0.120331 38.0426C0.0894882 37.6232 -0.0441621 37.2089 0.014879 36.7861C0.150292 35.8154 0.263087 34.8421 0.601178 33.9092C1.24505 32.1315 2.27401 30.6284 3.71332 29.4127C4.79897 28.4955 6.02973 27.8544 7.40413 27.4885C8.22042 27.2711 9.04611 27.1188 9.89002 27.1052C10.9328 27.0883 11.9573 27.2354 12.954 27.5481C14.9872 28.186 16.6927 29.3191 18.0304 30.9913C18.7673 31.9127 19.2946 32.9451 19.6477 34.0755C19.9579 35.0698 20.1244 36.0803 20.1309 37.5196Z" fill="#ED1B23"/>
<path d="M26.9941 9.98114C26.998 8.74943 27.2047 7.55523 27.6697 6.41301C28.7163 3.8427 30.4776 1.94923 33.0011 0.799027C34.0623 0.315323 35.1844 0.0770143 36.3544 0.0430546C37.0696 0.0223835 37.7813 0.0250412 38.4919 0.106544C39.9359 0.272209 41.2598 0.774812 42.4779 1.56297C44.5643 2.9128 45.9261 4.80656 46.6495 7.18109C47.0658 8.54715 47.1853 9.93861 46.9862 11.3499C46.6234 13.9222 45.4552 16.0511 43.4478 17.7012C42.0173 18.8771 40.3877 19.6216 38.5644 19.9248C37.6221 20.0816 36.6766 20.0616 35.729 19.942C33.9293 19.7146 32.3143 19.0448 30.8903 17.9206C29.2124 16.5959 28.0407 14.9136 27.4054 12.8615C27.1642 12.0828 27.0306 11.1313 26.9941 9.98114Z" fill="#ED1B23"/>
</svg>
