<svg xmlns="http://www.w3.org/2000/svg" width="57.228" height="49.904" viewBox="0 0 57.228 49.904"><defs><style>.a{fill:#f8ffff;}.b{fill:#8a3434;}.c{fill:#b24747;}</style></defs><g transform="translate(-1433.18 -463.867)"><g transform="translate(1433.18 463.867)"><path class="a" d="M1433.461,493.8c.046-.214,1.087-4.814,4.24-7.16a36.182,36.182,0,0,1,3.26-2.316c1.457-.56,1.8-1.494,1.762-2.96-.1-3.837-.046-7.678-.029-11.517.017-3.753,2.239-6.122,5.958-5.971,6.237.254,12.464.751,18.7,1.086,2.8.15,5.612.213,8.413.323,3.125.123,6.236.468,9.367.52a5.263,5.263,0,0,1,5.22,5.336q.107,10.749,0,21.5c-.036,3.2-2.177,5.026-6.283,5.32-1.462.1-1.914.536-1.786,1.922.1,1.079-.013,2.175.03,3.261a2.111,2.111,0,0,1-1.02,2.11c-.855.515-1.44.023-2.06-.453-2.123-1.63-4.282-3.213-6.364-4.893a4.224,4.224,0,0,0-3.74-1.2c-2.3.4-4.705-.063-7.06.42-.8.164-1.234.36-1.484,1.146-1.64,5.167-5.19,8.263-10.358,9.8a81.893,81.893,0,0,0-10.227,3.7h-1.154a2.06,2.06,0,0,1-.956-3.181c1.121-1.873.493-3.111-.944-4.435a11.719,11.719,0,0,1-3.484-6.98A13.031,13.031,0,0,1,1433.461,493.8Z" transform="translate(-1433.18 -463.867)"/><path class="b" d="M1468.832,486.668a10.037,10.037,0,0,0-6.193-.64c-.9.177-1.106-.055-1.1-.9.029-4.543-.04-9.088.048-13.629.045-2.315,1.783-3.793,4.25-3.69,5.759.242,11.515.556,17.271.86,6.2.327,12.405.692,18.609,1.01,3.065.157,4.431,1.5,4.437,4.54q.02,9.791,0,19.581c0,3.487-1.143,4.7-4.637,4.976-3.438.267-3.438.267-3.438,3.653v4.141c-2.882-2.247-5.5-4.253-8.076-6.319a3.393,3.393,0,0,0-2.633-.788c-2.742.239-5.5.29-8.246.5-1.045.08-1.561-.127-1.448-1.293a6.623,6.623,0,0,0-.421-2.829c-1.094-1.3-1.287-3.109-2.456-4.368a7.651,7.651,0,0,0-2.7-2.717C1471.157,487.833,1469.765,487.608,1468.832,486.668Z" transform="translate(-1450.5 -466.271)"/><circle class="a" cx="13.818" cy="13.818" r="13.818" transform="translate(0.708 18.345)"/><path class="b" d="M1462.424,526.617c.415,5.624-1.593,10.148-6.65,12.759-2.918,1.507-6.223,2.278-9.37,3.331a12.164,12.164,0,0,1-4.027,1.115c.638-1.572,1.819-3.072,1.594-4.32-.234-1.3-2.242-1.866-3.221-3.075a12.289,12.289,0,0,1,11.891-19.953c.313.059.635.069.952.1a8.037,8.037,0,0,1,3.974,1.666,9.522,9.522,0,0,1,2.885,2.882A9.784,9.784,0,0,1,1462.424,526.617Z" transform="translate(-1436.027 -495.853)"/><path class="a" d="M1517.51,509.963c0,1.211-.054,2.425.014,3.633a2.031,2.031,0,0,1-1.913,2.391,2.089,2.089,0,0,1-2.516-1.83,36.74,36.74,0,0,1-.006-8.194,2.085,2.085,0,0,1,2.519-1.82,2.006,2.006,0,0,1,1.912,2.379C1517.467,507.666,1517.51,508.815,1517.51,509.963Z" transform="translate(-1481.848 -488.453)"/><path class="a" d="M1515.832,485.536a2.114,2.114,0,0,1,1.868,2.418,2,2,0,0,1-2.2,2.295,2.24,2.24,0,0,1-2.349-2.291A2.5,2.5,0,0,1,1515.832,485.536Z" transform="translate(-1482.018 -477.101)"/><path class="a" d="M1448.256,543.931c1.6-1.871,1.308-2.739-.4-3.716a10.12,10.12,0,0,1-4.542-12.246,10.4,10.4,0,1,1,13.024,13.272C1453.871,542.08,1451.39,542.89,1448.256,543.931Z" transform="translate(-1439.013 -498.744)"/><path class="c" d="M1466.077,541.8a2.422,2.422,0,0,1-2.246,2.434c-1.392.157-2.588-.488-2.66-1.873-.114-2.2-1.1-3.188-3.208-3.54a2.4,2.4,0,0,1-2.235-2.661,2.278,2.278,0,0,1,2.25-2.209,2.372,2.372,0,0,1,2.706,2.353,3.121,3.121,0,0,0,2.934,2.991A2.559,2.559,0,0,1,1466.077,541.8Z" transform="translate(-1446.943 -506.666)"/><path class="c" d="M1457.989,553.729c-1.353-.127-2.231-.8-2.259-2.15a2.195,2.195,0,0,1,4.387-.093A2.147,2.147,0,0,1,1457.989,553.729Z" transform="translate(-1446.953 -516.11)"/><path class="c" d="M1473.056,533.833c1.393.122,2.263.791,2.3,2.143a2.191,2.191,0,0,1-4.379.117A2.172,2.172,0,0,1,1473.056,533.833Z" transform="translate(-1456.266 -506.6)"/></g></g></svg>