<svg xmlns="http://www.w3.org/2000/svg" width="50.923" height="56.7" viewBox="0 0 50.923 56.7">
  <defs>
    <style>
      .a {
        fill: #f8ffff;
      }

      .b {
        fill: #8a3434;
      }

      .c {
        fill: #b24747;
      }
    </style>
  </defs>
  <g transform="translate(-706.338 -468.14)">
    <g transform="translate(706.338 468.14)">
      <path class="a"
        d="M706.338,508.822V478.694a4.9,4.9,0,0,1,3.217-4.308c1.089-.457,1.078-1.429,1.175-2.393.229-2.254,1.277-3.484,3.11-3.75,2.723-.4,4.31,1.106,4.467,4.227.272-2.948,1.42-4.237,3.794-4.259,2.449-.022,3.625,1.3,3.893,4.374.053-2.882,1.277-4.334,3.688-4.375,2.443-.041,3.658,1.263,3.86,4.22.115-1.807.585-3.354,2.4-4,2.652-.943,4.981.472,5.173,3.313a4.28,4.28,0,0,0,1.974,3.6c1.8,1.263,2.308,3.256,2.315,5.386.015,4.51.023,9.019-.007,13.529a2.284,2.284,0,0,0,1.788,2.491c7.5,2.644,10.81,8.281,9.939,16.314-.548,5.049-3.4,8.318-7.547,10.747-1.354.792-2.948.583-4.386,1.029h-4.571c-6.035-.6-9.678-4.129-11.638-9.63a2.188,2.188,0,0,0-2.438-1.579c-4.046.02-8.092.01-12.139.007-.7,0-1.391.012-2.086-.015C708.763,513.485,707.132,512.175,706.338,508.822Z"
        transform="translate(-706.338 -468.14)" />
      <path class="b"
        d="M728.054,495.874c-4.76,0-9.521.038-14.281-.026-1.207-.016-1.617.267-1.606,1.555.063,7.371.022,14.743.036,22.114,0,2.079.618,2.662,2.762,2.667,5.141.013,10.282-.013,15.424.026.611,0,1.6-.515,1.64.865.044,1.5-1.023,1-1.709,1q-7.807.05-15.614.013c-2.91-.01-4.4-1.44-4.405-4.284q-.03-13.44,0-26.88c0-2.233,1.071-3.72,2.886-4.177.78-.2,1.3-.217,1.342.881a2.431,2.431,0,0,0,4.861,0c.029-1.1.646-1.021,1.361-1,.67.021,1.375-.2,1.4.96a2.429,2.429,0,0,0,4.857.083c.043-1.04.553-1.073,1.322-1.051s1.444-.1,1.461,1.115a2.414,2.414,0,0,0,4.822-.02c.028-1.238.723-1.056,1.481-1.1.794-.041,1.258.057,1.305,1.07a2.261,2.261,0,0,0,2.482,2.332,2.22,2.22,0,0,0,2.355-2.263c.05-1.392.7-1.048,1.415-.673a3.534,3.534,0,0,1,2.051,3.2c.038,5.528.009,11.057.036,16.585,0,.778-.168,1.134-1.042,1.145-1.06.013-.869-.673-.87-1.273-.008-3.75-.07-7.5.03-11.247.037-1.377-.4-1.677-1.7-1.656C737.449,495.921,732.751,495.874,728.054,495.874Z"
        transform="translate(-708.77 -480.743)" />
      <path class="b" d="M781.344,546.22a12.583,12.583,0,1,1-12.544,12.6A12.594,12.594,0,0,1,781.344,546.22Z"
        transform="translate(-744.796 -516.214)" />
      <path class="c"
        d="M735.432,532.873a3.633,3.633,0,0,1-3.454,3.8,3.437,3.437,0,0,1-3.822-3.122c-.5-3.864.3-3.68-4.451-4.81-2.458-.585-3.934-2.46-3.389-4.434a3.526,3.526,0,0,1,3.384-2.836,3.406,3.406,0,0,1,3.559,2.3,1.681,1.681,0,0,1,.174.539c.18,3.259,2,4.759,5.133,5.271A3.211,3.211,0,0,1,735.432,532.873Z"
        transform="translate(-714.875 -500.969)" />
      <path class="c"
        d="M747.269,527.9a3.227,3.227,0,1,1-.027-6.452,3.234,3.234,0,0,1,3.205,3.11A3.292,3.292,0,0,1,747.269,527.9Z"
        transform="translate(-729.506 -500.963)" />
      <path class="c" d="M724.565,550.71a3.227,3.227,0,1,1,3.165-3.339A3.243,3.243,0,0,1,724.565,550.71Z"
        transform="translate(-715.517 -515.006)" />
      <path class="c"
        d="M773.781,524.442c-1.077,0-2.154.007-3.231,0a1.456,1.456,0,0,1-1.649-1.455,1.406,1.406,0,0,1,1.519-1.573q3.42-.052,6.841.005a1.384,1.384,0,0,1,1.461,1.439,1.42,1.42,0,0,1-1.521,1.573C776.062,524.473,774.921,524.441,773.781,524.442Z"
        transform="translate(-744.857 -500.927)" />
      <path class="c"
        d="M772.79,537.338c-1.14,0-2.282.028-3.42-.011a1.506,1.506,0,0,1,.035-3.011c2.664-.044,4.945-.026,6.841,0a1.39,1.39,0,0,1,1.473,1.428,1.416,1.416,0,0,1-1.509,1.583C775.072,537.375,773.931,537.34,772.79,537.338Z"
        transform="translate(-744.239 -508.869)" />
      <path class="b"
        d="M726.587,477.274c0,.823.032,1.647,0,2.468-.05,1.1-.61,1.845-1.745,1.828a1.6,1.6,0,0,1-1.643-1.729c-.045-1.771-.061-3.545.011-5.314a1.581,1.581,0,0,1,1.721-1.642,1.635,1.635,0,0,1,1.647,1.732C726.625,475.5,726.585,476.388,726.587,477.274Z"
        transform="translate(-716.693 -471.061)" />
      <path class="b"
        d="M746.413,477.3c0,.823.034,1.647-.008,2.468-.057,1.1-.629,1.837-1.767,1.8a1.614,1.614,0,0,1-1.622-1.752c-.038-1.771-.062-3.546.018-5.314a1.676,1.676,0,0,1,3.347-.05c.087.941.019,1.9.019,2.846Z"
        transform="translate(-728.898 -471.058)" />
      <path class="b"
        d="M766.222,477.34c0,.886.065,1.778-.019,2.656a1.6,1.6,0,0,1-1.6,1.575,1.576,1.576,0,0,1-1.747-1.612c-.079-1.832-.073-3.671,0-5.5a1.561,1.561,0,0,1,1.6-1.574,1.6,1.6,0,0,1,1.752,1.613C766.291,475.436,766.223,476.391,766.222,477.34Z"
        transform="translate(-741.101 -471.058)" />
      <path class="b"
        d="M782.672,477.246c0-.886-.045-1.775.01-2.657a1.627,1.627,0,0,1,1.67-1.707,1.589,1.589,0,0,1,1.7,1.669c.065,1.77.059,3.544,0,5.315a1.685,1.685,0,1,1-3.369.038C782.622,479.022,782.673,478.133,782.672,477.246Z"
        transform="translate(-753.326 -471.059)" />
      <path class="a"
        d="M783.948,572.823a10.657,10.657,0,0,1-3.069-20.729,10.14,10.14,0,0,1,1.473-.266,3.177,3.177,0,0,1,1.452-.139,2.733,2.733,0,0,1,.56,2.1c.193-.625-.382-1.552.559-2.1a3.156,3.156,0,0,1,1.466.136,10.374,10.374,0,0,1,8.627,9.444A10.713,10.713,0,0,1,787.4,572.39a23.711,23.711,0,0,1-2.6.433c-.763-.706-.262-1.631-.422-2.337C784.21,571.192,784.711,572.117,783.948,572.823Z"
        transform="translate(-747.802 -519.572)" />
      <path class="c" d="M800.4,600.366c.158-1.31-.167-2.672.417-3.96.609,1.285.264,2.65.428,3.96Z"
        transform="translate(-764.25 -547.114)" />
      <path class="a" d="M797.945,551.525l-1.7-.062a5.509,5.509,0,0,1,4.036,0l-1.7.063A.412.412,0,0,1,797.945,551.525Z"
        transform="translate(-761.694 -519.207)" />
      <path class="c"
        d="M799.966,566.817c-.076.531-.479.762-.825,1.028-2.013,1.547-4.049,3.066-6.039,4.642a1.17,1.17,0,0,1-1.806-.035c-1.287-1.225-2.636-2.386-3.943-3.591-.356-.328-.894-.692-.387-1.254s.908-.043,1.273.274a18.332,18.332,0,0,1,2.533,2.3c1.1,1.4,1.978.989,3.094.049,1.552-1.307,3.21-2.488,4.832-3.712C799.233,566.115,799.729,566,799.966,566.817Z"
        transform="translate(-755.854 -528.521)" />
      <path class="c" d="M800.551,552.237l.631,0a11.377,11.377,0,0,1-.322,4.5A11.925,11.925,0,0,1,800.551,552.237Z"
        transform="translate(-764.3 -519.919)" />
      <path class="c" d="M778.941,578.336a4.988,4.988,0,0,1-3.752.1A5.192,5.192,0,0,1,778.941,578.336Z"
        transform="translate(-748.73 -535.802)" />
      <path class="c" d="M817.979,578.445a5.488,5.488,0,0,1,3.771-.052A5.368,5.368,0,0,1,817.979,578.445Z"
        transform="translate(-775.076 -535.833)" />
    </g>
  </g>
</svg>