<svg xmlns="http://www.w3.org/2000/svg"
  xmlns:xlink="http://www.w3.org/1999/xlink" width="321.726" height="60.989" viewBox="0 0 321.726 60.989">
  <defs>
    <style>.a{fill:#b24747;}.b,.c,.e{fill:#fff;}.b{font-size:20px;font-family:SegoeUI-Semibold, Segoe UI;font-weight:600;}.d{fill:#707070;}.e{stroke:#707070;stroke-width:0.7px;}.f{fill:#455a64;}.g{filter:url(#a);}</style>
    <filter id="a" x="0" y="0" width="321.726" height="60.989" filterUnits="userSpaceOnUse">
      <feOffset dx="3" dy="3" input="SourceAlpha"/>
      <feGaussianBlur stdDeviation="1" result="b"/>
      <feFlood flood-opacity="0.2"/>
      <feComposite operator="in" in2="b"/>
      <feComposite in="SourceGraphic"/>
    </filter>
  </defs>
  <g transform="translate(0 -0.581)">
    <g transform="translate(0 0.581)">
      <g class="g" transform="matrix(1, 0, 0, 1, 0, 0)">
        <rect class="a" width="315.726" height="54.989" rx="5.923"/>
      </g>
    </g>
    <text class="b" transform="translate(32 35.581)">
      <tspan x="0" y="0">UNLOCK TIMESHEET</tspan>
    </text>
    <path class="c" d="M301.524,247.677l19.057-27.386h46.669a6.132,6.132,0,0,1,4.162,1.679,5.832,5.832,0,0,1,1.621,4.1l-.024,43.874a7.26,7.26,0,0,1-1.717,3.719,7.844,7.844,0,0,1-4.042,1.619H320.581Z" transform="translate(-57.158 -219.7)"/>
    <g transform="translate(194.182 6.811)">
      <path class="d" d="M125.994,0c-4.781.006-8.655,4.156-8.661,9.276v5.708A.691.691,0,0,0,118,15.7h2.665a.691.691,0,0,0,.666-.714V9.276a4.675,4.675,0,1,1,9.327,0l.048,1.367a.691.691,0,0,0,.666.714h2.665a.691.691,0,0,0,.666-.714l-.048-1.367C134.649,4.156,130.775.006,125.994,0Z" transform="translate(-26.968 2)"/>
      <path class="e" d="M78.235,213.333H95.36a3.568,3.568,0,0,1,3.568,3.568v12.844a3.568,3.568,0,0,1-3.568,3.568H78.235a3.568,3.568,0,0,1-3.568-3.568V216.9A3.568,3.568,0,0,1,78.235,213.333Z" transform="translate(0 -199.062)"/>
      <path class="f" d="M209.8,280.691a3.568,3.568,0,1,0-5.15,3.182l-.551,3.853a.713.713,0,0,0,.706.813h2.854a.713.713,0,0,0,.714-.813l-.551-3.853A3.582,3.582,0,0,0,209.8,280.691Z" transform="translate(-119.437 -258.571)"/>
    </g>
  </g>
</svg>